solid CATIA STL
  facet normal  -0.000000e+000  0.000000e+000 -9.999999e-001
    outer loop
      vertex  0.000000e+000  1.665000e+003  0.000000e+000
      vertex  3.000000e+001  3.000000e+001  0.000000e+000
      vertex  0.000000e+000  0.000000e+000  0.000000e+000
    endloop
  endfacet
  facet normal  0.000000e+000  0.000000e+000 -1.000000e+000
    outer loop
      vertex  0.000000e+000  0.000000e+000  0.000000e+000
      vertex  3.000000e+001  3.000000e+001  0.000000e+000
      vertex  1.915000e+003  3.000000e+001  0.000000e+000
    endloop
  endfacet
  facet normal  0.000000e+000  -0.000000e+000 -9.999999e-001
    outer loop
      vertex  0.000000e+000  0.000000e+000  0.000000e+000
      vertex  1.915000e+003  3.000000e+001  0.000000e+000
      vertex  1.945000e+003  0.000000e+000  0.000000e+000
    endloop
  endfacet
  facet normal  0.000000e+000  0.000000e+000 -1.000000e+000
    outer loop
      vertex  3.000000e+001  3.000000e+001  0.000000e+000
      vertex  0.000000e+000  1.665000e+003  0.000000e+000
      vertex  3.000000e+001  1.635000e+003  0.000000e+000
    endloop
  endfacet
  facet normal  0.000000e+000  0.000000e+000 -9.999999e-001
    outer loop
      vertex  3.000000e+001  1.635000e+003  0.000000e+000
      vertex  0.000000e+000  1.665000e+003  0.000000e+000
      vertex  1.945000e+003  1.665000e+003  0.000000e+000
    endloop
  endfacet
  facet normal  0.000000e+000  0.000000e+000 -1.000000e+000
    outer loop
      vertex  3.000000e+001  1.635000e+003  0.000000e+000
      vertex  1.945000e+003  1.665000e+003  0.000000e+000
      vertex  1.915000e+003  1.635000e+003  0.000000e+000
    endloop
  endfacet
  facet normal  0.000000e+000  0.000000e+000 -9.999999e-001
    outer loop
      vertex  1.915000e+003  1.635000e+003  0.000000e+000
      vertex  1.945000e+003  1.665000e+003  0.000000e+000
      vertex  1.945000e+003  0.000000e+000  0.000000e+000
    endloop
  endfacet
  facet normal  0.000000e+000  0.000000e+000 -1.000000e+000
    outer loop
      vertex  1.915000e+003  1.635000e+003  0.000000e+000
      vertex  1.945000e+003  0.000000e+000  0.000000e+000
      vertex  1.915000e+003  3.000000e+001  0.000000e+000
    endloop
  endfacet
  facet normal  9.999999e-001  -0.000000e+000  0.000000e+000
    outer loop
      vertex  3.000000e+001  1.635000e+003  9.700000e+002
      vertex  3.000000e+001  3.000000e+001  9.700000e+002
      vertex  3.000000e+001  1.635000e+003  0.000000e+000
    endloop
  endfacet
  facet normal  9.999999e-001  0.000000e+000  0.000000e+000
    outer loop
      vertex  3.000000e+001  1.635000e+003  0.000000e+000
      vertex  3.000000e+001  3.000000e+001  9.700000e+002
      vertex  3.000000e+001  3.000000e+001  0.000000e+000
    endloop
  endfacet
  facet normal  0.000000e+000 -1.000000e+000  0.000000e+000
    outer loop
      vertex  1.915000e+003  1.635000e+003  9.700000e+002
      vertex  3.000000e+001  1.635000e+003  9.700000e+002
      vertex  1.915000e+003  1.635000e+003  0.000000e+000
    endloop
  endfacet
  facet normal  0.000000e+000 -1.000000e+000  0.000000e+000
    outer loop
      vertex  1.915000e+003  1.635000e+003  0.000000e+000
      vertex  3.000000e+001  1.635000e+003  9.700000e+002
      vertex  3.000000e+001  1.635000e+003  0.000000e+000
    endloop
  endfacet
  facet normal -9.999999e-001  -0.000000e+000  0.000000e+000
    outer loop
      vertex  1.915000e+003  3.000000e+001  9.700000e+002
      vertex  1.915000e+003  1.635000e+003  9.700000e+002
      vertex  1.915000e+003  3.000000e+001  0.000000e+000
    endloop
  endfacet
  facet normal -9.999999e-001  0.000000e+000  0.000000e+000
    outer loop
      vertex  1.915000e+003  3.000000e+001  0.000000e+000
      vertex  1.915000e+003  1.635000e+003  9.700000e+002
      vertex  1.915000e+003  1.635000e+003  0.000000e+000
    endloop
  endfacet
  facet normal  0.000000e+000  1.000000e+000  0.000000e+000
    outer loop
      vertex  3.000000e+001  3.000000e+001  9.700000e+002
      vertex  1.915000e+003  3.000000e+001  9.700000e+002
      vertex  3.000000e+001  3.000000e+001  0.000000e+000
    endloop
  endfacet
  facet normal  0.000000e+000  1.000000e+000  0.000000e+000
    outer loop
      vertex  3.000000e+001  3.000000e+001  0.000000e+000
      vertex  1.915000e+003  3.000000e+001  9.700000e+002
      vertex  1.915000e+003  3.000000e+001  0.000000e+000
    endloop
  endfacet
  facet normal  0.000000e+000  0.000000e+000 -9.999999e-001
    outer loop
      vertex  3.000000e+001  3.000000e+001  9.700000e+002
      vertex  3.000000e+001  1.635000e+003  9.700000e+002
      vertex  1.915000e+003  3.000000e+001  9.700000e+002
    endloop
  endfacet
  facet normal  0.000000e+000  0.000000e+000 -9.999999e-001
    outer loop
      vertex  1.915000e+003  3.000000e+001  9.700000e+002
      vertex  3.000000e+001  1.635000e+003  9.700000e+002
      vertex  1.915000e+003  1.635000e+003  9.700000e+002
    endloop
  endfacet
  facet normal  0.000000e+000  0.000000e+000  1.000000e+000
    outer loop
      vertex  0.000000e+000  0.000000e+000  1.000000e+003
      vertex  1.945000e+003  0.000000e+000  1.000000e+003
      vertex  0.000000e+000  1.665000e+003  1.000000e+003
    endloop
  endfacet
  facet normal  -0.000000e+000  0.000000e+000  1.000000e+000
    outer loop
      vertex  0.000000e+000  1.665000e+003  1.000000e+003
      vertex  1.945000e+003  0.000000e+000  1.000000e+003
      vertex  1.945000e+003  1.665000e+003  1.000000e+003
    endloop
  endfacet
  facet normal -1.000000e+000  0.000000e+000  0.000000e+000
    outer loop
      vertex  0.000000e+000  1.665000e+003  1.000000e+003
      vertex  0.000000e+000  1.665000e+003  0.000000e+000
      vertex  0.000000e+000  0.000000e+000  1.000000e+003
    endloop
  endfacet
  facet normal -1.000000e+000  0.000000e+000  0.000000e+000
    outer loop
      vertex  0.000000e+000  0.000000e+000  1.000000e+003
      vertex  0.000000e+000  1.665000e+003  0.000000e+000
      vertex  0.000000e+000  0.000000e+000  0.000000e+000
    endloop
  endfacet
  facet normal  0.000000e+000  1.000000e+000  -0.000000e+000
    outer loop
      vertex  1.945000e+003  1.665000e+003  1.000000e+003
      vertex  1.945000e+003  1.665000e+003  0.000000e+000
      vertex  0.000000e+000  1.665000e+003  1.000000e+003
    endloop
  endfacet
  facet normal  0.000000e+000  1.000000e+000  0.000000e+000
    outer loop
      vertex  0.000000e+000  1.665000e+003  1.000000e+003
      vertex  1.945000e+003  1.665000e+003  0.000000e+000
      vertex  0.000000e+000  1.665000e+003  0.000000e+000
    endloop
  endfacet
  facet normal  1.000000e+000  0.000000e+000  0.000000e+000
    outer loop
      vertex  1.945000e+003  0.000000e+000  1.000000e+003
      vertex  1.945000e+003  0.000000e+000  0.000000e+000
      vertex  1.945000e+003  1.665000e+003  1.000000e+003
    endloop
  endfacet
  facet normal  1.000000e+000  0.000000e+000  0.000000e+000
    outer loop
      vertex  1.945000e+003  1.665000e+003  1.000000e+003
      vertex  1.945000e+003  0.000000e+000  0.000000e+000
      vertex  1.945000e+003  1.665000e+003  0.000000e+000
    endloop
  endfacet
  facet normal  0.000000e+000 -1.000000e+000  0.000000e+000
    outer loop
      vertex  0.000000e+000  0.000000e+000  1.000000e+003
      vertex  0.000000e+000  0.000000e+000  0.000000e+000
      vertex  1.945000e+003  0.000000e+000  1.000000e+003
    endloop
  endfacet
  facet normal  0.000000e+000 -1.000000e+000  -0.000000e+000
    outer loop
      vertex  1.945000e+003  0.000000e+000  1.000000e+003
      vertex  0.000000e+000  0.000000e+000  0.000000e+000
      vertex  1.945000e+003  0.000000e+000  0.000000e+000
    endloop
  endfacet
endsolid CATIA STL
